<?xml version="1.0" encoding="UTF-8" standalone="no"?>
<!-- Created with Inkscape (http://www.inkscape.org/) -->

<svg
   xmlns:dc="http://purl.org/dc/elements/1.1/"
   xmlns:cc="http://creativecommons.org/ns#"
   xmlns:rdf="http://www.w3.org/1999/02/22-rdf-syntax-ns#"
   xmlns:svg="http://www.w3.org/2000/svg"
   xmlns="http://www.w3.org/2000/svg"
   xmlns:sodipodi="http://sodipodi.sourceforge.net/DTD/sodipodi-0.dtd"
   xmlns:inkscape="http://www.inkscape.org/namespaces/inkscape"
   width="100mm"
   height="100mm"
   viewBox="0 0 100 100"
   version="1.1"
   id="svg8"
   inkscape:version="0.92.4 (5da689c313, 2019-01-14)"
   sodipodi:docname="leave-animate-0.svg">
  <defs
     id="defs2" />
  <sodipodi:namedview
     id="base"
     pagecolor="#ffffff"
     bordercolor="#666666"
     borderopacity="1.0"
     inkscape:pageopacity="0.0"
     inkscape:pageshadow="2"
     inkscape:zoom="1.4"
     inkscape:cx="11.943969"
     inkscape:cy="169.81011"
     inkscape:document-units="mm"
     inkscape:current-layer="layer1"
     showgrid="false"
     inkscape:window-width="1858"
     inkscape:window-height="1057"
     inkscape:window-x="1912"
     inkscape:window-y="-8"
     inkscape:window-maximized="1" />
  <metadata
     id="metadata5">
    <rdf:RDF>
      <cc:Work
         rdf:about="">
        <dc:format>image/svg+xml</dc:format>
        <dc:type
           rdf:resource="http://purl.org/dc/dcmitype/StillImage" />
        <dc:title />
      </cc:Work>
    </rdf:RDF>
  </metadata>
  <g
     inkscape:label="Capa 1"
     inkscape:groupmode="layer"
     id="layer1"
     transform="translate(0,-197)">
    <g
       id="g23"
       transform="matrix(2.1458898,0,0,2.1458898,7.7083522,203.75159)">
	<g
   id="g14">
		<linearGradient
   y2="40.885399"
   x2="18.2295"
   y1="8.6864004"
   x1="31.1831"
   gradientUnits="userSpaceOnUse"
   id="SVGID_1_">
			<stop
   id="stop7"
   style="stop-color:#BED639"
   offset="0" />

			<stop
   id="stop9"
   style="stop-color:#01A79D"
   offset="0.8037" />

		</linearGradient>

		<path
   id="path12"
   d="m 38.709,22.038 c -1.006,0.127 -1.956,0.523 -2.663,1.212 -0.078,0.076 -0.13,0.163 -0.199,0.242 0.251,-0.589 0.632,-1.16 1.15,-1.665 0.449,-0.442 0.967,-0.795 1.517,-1.067 -0.335,-1.747 -0.898,-3.396 -1.654,-4.942 -0.739,0.2 -1.429,0.544 -1.972,1.065 -0.078,0.077 -0.13,0.163 -0.202,0.243 0.254,-0.59 0.641,-1.159 1.169,-1.664 0.178,-0.173 0.377,-0.315 0.576,-0.463 -1.022,-1.901 -2.266,-3.657 -3.652,-5.22 -0.273,0.265 -0.52,0.557 -0.694,0.909 -0.042,0.092 -0.062,0.189 -0.098,0.28 0.03,-0.544 0.167,-1.087 0.387,-1.614 C 26.834,3.33 19.773,0 19.773,0 c 1.713,3.029 1.133,6.004 -0.183,9.077 0.15,0.211 0.3,0.425 0.415,0.666 0.305,0.61 0.462,1.25 0.488,1.889 -0.032,-0.094 -0.052,-0.19 -0.098,-0.281 -0.276,-0.565 -0.709,-1.005 -1.224,-1.342 -0.868,1.855 -1.952,3.752 -2.913,5.719 0.618,0.281 1.195,0.66 1.696,1.139 0.53,0.508 0.911,1.076 1.168,1.666 -0.072,-0.08 -0.124,-0.167 -0.201,-0.242 -0.85,-0.815 -2.028,-1.235 -3.259,-1.267 -0.684,1.522 -1.247,3.089 -1.559,4.714 0.992,0.258 1.943,0.75 2.704,1.495 0.521,0.508 0.902,1.075 1.153,1.666 -0.072,-0.079 -0.124,-0.166 -0.199,-0.243 -0.986,-0.961 -2.426,-1.362 -3.867,-1.232 -0.016,0.253 -0.062,0.501 -0.066,0.757 -0.084,6.206 4.502,11.346 10.443,12.338 2.491,-4.406 3.963,-9.654 3.963,-15.321 0,-6.348 -1.834,-12.183 -4.89,-16.883 3.652,4.911 5.873,11.3 5.873,18.305 0,5.136 -1.218,9.928 -3.295,14.063 0.143,0.005 0.284,0.022 0.43,0.022 6.917,0 12.523,-5.608 12.523,-12.524 0,-0.734 -0.081,-1.439 -0.166,-2.143 z"
   inkscape:connector-curvature="0"
   style="fill:url(#SVGID_1_)" />

	</g>

	<linearGradient
   y2="36.0424"
   x2="16.362301"
   y1="21.607901"
   x1="5.2589002"
   gradientUnits="userSpaceOnUse"
   id="SVGID_2_">
		<stop
   id="stop16"
   style="stop-color:#BED639"
   offset="0" />

		<stop
   id="stop18"
   style="stop-color:#01A79D"
   offset="0.8037" />

	</linearGradient>

	<path
   id="path21"
   d="m 18.936,26.028 c -0.471,0.487 -0.79,1.086 -0.869,1.735 -0.009,0.074 0,0.138 -0.003,0.209 -0.114,-0.41 -0.156,-0.859 -0.101,-1.338 0.045,-0.415 0.166,-0.809 0.335,-1.182 -0.899,-0.756 -1.875,-1.371 -2.91,-1.854 -0.3,0.413 -0.507,0.876 -0.57,1.371 -0.01,0.073 0,0.14 -0.003,0.211 -0.117,-0.41 -0.153,-0.863 -0.094,-1.344 0.023,-0.164 0.065,-0.32 0.101,-0.477 -1.318,-0.554 -2.689,-0.939 -4.053,-1.163 -0.029,0.25 -0.029,0.5 0.026,0.756 0.017,0.064 0.043,0.122 0.066,0.183 C 10.645,22.844 10.489,22.506 10.382,22.144 5.023,21.354 0,22.587 0,22.587 c 2.148,0.841 3.089,2.615 3.695,4.744 0.163,0.045 0.332,0.094 0.491,0.169 0.408,0.187 0.759,0.453 1.035,0.769 C 5.166,28.237 5.118,28.197 5.055,28.166 4.674,27.991 4.267,27.945 3.864,27.986 c 0.328,1.319 0.56,2.745 0.886,4.159 0.433,-0.112 0.891,-0.16 1.344,-0.12 0.488,0.039 0.921,0.169 1.295,0.369 C 7.325,32.382 7.259,32.358 7.187,32.351 6.412,32.289 5.631,32.564 4.983,33.061 5.27,34.127 5.631,35.167 6.145,36.133 6.767,35.851 7.46,35.71 8.163,35.775 8.641,35.819 9.075,35.953 9.45,36.153 9.381,36.142 9.318,36.119 9.244,36.111 8.34,36.028 7.428,36.42 6.745,37.089 c 0.097,0.137 0.176,0.283 0.28,0.416 2.543,3.23 7.045,3.961 10.515,1.993 -0.554,-3.302 -1.986,-6.617 -4.346,-9.532 -2.647,-3.266 -6.026,-5.505 -9.558,-6.647 3.926,1.004 7.734,3.364 10.657,6.966 2.139,2.643 3.51,5.617 4.164,8.611 0.081,-0.057 0.157,-0.107 0.231,-0.168 3.558,-2.885 4.105,-8.105 1.224,-11.664 -0.308,-0.38 -0.641,-0.707 -0.976,-1.036 z"
   inkscape:connector-curvature="0"
   style="fill:url(#SVGID_2_)" />

</g>
  </g>
</svg>
